<svg width="519" height="452" viewBox="0 0 519 452" fill="none" xmlns="http://www.w3.org/2000/svg">
<g clip-path="url(#clip0_5_986)">
<path d="M512.979 252.586V338.937H483.185" stroke="black" stroke-width="3" stroke-miterlimit="10"/>
<path d="M512.979 172.639V6.01099H386.765" stroke="black" stroke-width="3" stroke-miterlimit="10"/>
<path d="M142.663 6.01099H245.34" stroke="black" stroke-width="3" stroke-miterlimit="10"/>
<path d="M6.00571 191.253V6.01099H62.7855" stroke="black" stroke-width="3" stroke-miterlimit="10"/>
<path d="M6.00571 271.2V449.646H340.789L340.82 338.89H388.615" stroke="black" stroke-width="3" stroke-miterlimit="10"/>
<path d="M142.663 0.784729H62.7855V11.2529H142.663V0.784729Z" stroke="black" stroke-miterlimit="10"/>
<path d="M518.216 172.655H507.757V252.602H518.216V172.655Z" stroke="black" stroke-miterlimit="10"/>
<path d="M11.2431 191.253H0.784027V271.2H11.2431V191.253Z" stroke="black" stroke-miterlimit="10"/>
<path d="M386.765 0.784729H245.34V11.2529H386.765V0.784729Z" stroke="black" stroke-miterlimit="10"/>
<path d="M199.443 257.059V292.435H6.00571" stroke="black" stroke-width="3" stroke-miterlimit="10"/>
<path d="M199.443 6.01099V205.33" stroke="black" stroke-width="3" stroke-miterlimit="10"/>
<path d="M199.443 210.102V252.571" stroke="black" stroke-miterlimit="10" stroke-linecap="round" stroke-dasharray="3 3"/>
<path d="M194.676 207.433H150.237C150.237 207.433 150.503 254.784 194.676 254.784" stroke="black" stroke-miterlimit="10"/>
<path d="M340.82 188.365V145.896" stroke="black" stroke-miterlimit="10" stroke-linecap="round" stroke-dasharray="3 3"/>
<path d="M345.603 191.033H390.026C390.026 191.033 389.775 143.683 345.603 143.683" stroke="black" stroke-miterlimit="10"/>
<path d="M51.4327 17.2639H18.7541C16.9528 17.2639 15.4925 18.7254 15.4925 20.5283V53.2356C15.4925 55.0385 16.9528 56.5 18.7541 56.5H51.4327C53.234 56.5 54.6943 55.0385 54.6943 53.2356V20.5283C54.6943 18.7254 53.234 17.2639 51.4327 17.2639Z" stroke="black" stroke-miterlimit="10"/>
<path d="M186.71 17.2639H154.032C152.23 17.2639 150.77 18.7254 150.77 20.5283V53.2356C150.77 55.0385 152.23 56.5 154.032 56.5H186.71C188.511 56.5 189.972 55.0385 189.972 53.2356V20.5283C189.972 18.7254 188.511 17.2639 186.71 17.2639Z" stroke="black" stroke-miterlimit="10"/>
<path d="M129.821 28.5168H75.628C73.6189 28.5168 71.9901 30.147 71.9901 32.1579V122.699C71.9901 124.71 73.6189 126.34 75.628 126.34H129.821C131.83 126.34 133.458 124.71 133.458 122.699V32.1579C133.458 30.147 131.83 28.5168 129.821 28.5168Z" stroke="black" stroke-miterlimit="10"/>
<path d="M96.2795 34.4807H81.963C80.586 34.4807 79.4698 35.5979 79.4698 36.9761V51.3051C79.4698 52.6833 80.586 53.8006 81.963 53.8006H96.2795C97.6565 53.8006 98.7727 52.6833 98.7727 51.3051V36.9761C98.7727 35.5979 97.6565 34.4807 96.2795 34.4807Z" stroke="black" stroke-miterlimit="10"/>
<path d="M123.486 34.4807H109.169C107.792 34.4807 106.676 35.5979 106.676 36.9761V51.3051C106.676 52.6833 107.792 53.8006 109.169 53.8006H123.486C124.863 53.8006 125.979 52.6833 125.979 51.3051V36.9761C125.979 35.5979 124.863 34.4807 123.486 34.4807Z" stroke="black" stroke-miterlimit="10"/>
<path d="M71.9901 59.2151H133.458" stroke="black" stroke-miterlimit="10"/>
<path d="M36.0186 244.567H30.546C29.2037 244.567 28.1155 245.656 28.1155 246.999V280.067C28.1155 281.411 29.2037 282.5 30.546 282.5H36.0186C37.3609 282.5 38.4491 281.411 38.4491 280.067V246.999C38.4491 245.656 37.3609 244.567 36.0186 244.567Z" stroke="black" stroke-miterlimit="10"/>
<path d="M120.13 244.567H114.657C113.315 244.567 112.227 245.656 112.227 246.999V280.067C112.227 281.411 113.315 282.5 114.657 282.5H120.13C121.472 282.5 122.56 281.411 122.56 280.067V246.999C122.56 245.656 121.472 244.567 120.13 244.567Z" stroke="black" stroke-miterlimit="10"/>
<path d="M60.6216 273.727H40.8953C39.5529 273.727 38.4648 274.816 38.4648 276.159V280.067C38.4648 281.411 39.5529 282.5 40.8953 282.5H60.6216C61.9639 282.5 63.0521 281.411 63.0521 280.067V276.159C63.0521 274.816 61.9639 273.727 60.6216 273.727Z" stroke="black" stroke-miterlimit="10"/>
<path d="M60.6216 249.118H40.8953C39.5529 249.118 38.4648 250.207 38.4648 251.551V271.294C38.4648 272.638 39.5529 273.727 40.8953 273.727H60.6216C61.9639 273.727 63.0521 272.638 63.0521 271.294V251.551C63.0521 250.207 61.9639 249.118 60.6216 249.118Z" stroke="black" stroke-miterlimit="10"/>
<path d="M85.2089 273.727H65.4826C64.1403 273.727 63.0521 274.816 63.0521 276.159V280.067C63.0521 281.411 64.1403 282.5 65.4826 282.5H85.2089C86.5513 282.5 87.6394 281.411 87.6394 280.067V276.159C87.6394 274.816 86.5513 273.727 85.2089 273.727Z" stroke="black" stroke-miterlimit="10"/>
<path d="M85.2089 249.118H65.4826C64.1403 249.118 63.0521 250.207 63.0521 251.551V271.294C63.0521 272.638 64.1403 273.727 65.4826 273.727H85.2089C86.5513 273.727 87.6394 272.638 87.6394 271.294V251.551C87.6394 250.207 86.5513 249.118 85.2089 249.118Z" stroke="black" stroke-miterlimit="10"/>
<path d="M109.796 273.727H90.07C88.7276 273.727 87.6395 274.816 87.6395 276.159V280.067C87.6395 281.411 88.7276 282.5 90.07 282.5H109.796C111.139 282.5 112.227 281.411 112.227 280.067V276.159C112.227 274.816 111.139 273.727 109.796 273.727Z" stroke="black" stroke-miterlimit="10"/>
<path d="M109.796 249.118H90.07C88.7276 249.118 87.6395 250.207 87.6395 251.551V271.294C87.6395 272.638 88.7276 273.727 90.07 273.727H109.796C111.139 273.727 112.227 272.638 112.227 271.294V251.551C112.227 250.207 111.139 249.118 109.796 249.118Z" stroke="black" stroke-miterlimit="10"/>
<path d="M254.717 346.015H260.456C261.851 346.015 262.981 344.884 262.981 343.489V308.977C262.981 307.581 261.851 306.45 260.456 306.45H254.717C253.323 306.45 252.193 307.581 252.193 308.977V343.489C252.193 344.884 253.323 346.015 254.717 346.015Z" stroke="black" stroke-miterlimit="10"/>
<path d="M167 346.015H172.739C174.133 346.015 175.263 344.884 175.263 343.489V308.977C175.263 307.581 174.133 306.45 172.739 306.45H167C165.605 306.45 164.475 307.581 164.475 308.977V343.489C164.475 344.884 165.605 346.015 167 346.015Z" stroke="black" stroke-miterlimit="10"/>
<path d="M229.064 315.6H249.668C251.062 315.6 252.193 314.468 252.193 313.073V308.977C252.193 307.581 251.062 306.45 249.668 306.45H229.064C227.669 306.45 226.539 307.581 226.539 308.977V313.073C226.539 314.468 227.669 315.6 229.064 315.6Z" stroke="black" stroke-miterlimit="10"/>
<path d="M229.064 341.276H249.668C251.062 341.276 252.193 340.144 252.193 338.749V318.126C252.193 316.731 251.062 315.6 249.668 315.6H229.064C227.669 315.6 226.539 316.731 226.539 318.126V338.749C226.539 340.144 227.669 341.276 229.064 341.276Z" stroke="black" stroke-miterlimit="10"/>
<path d="M203.426 315.6H224.03C225.425 315.6 226.555 314.468 226.555 313.073V308.977C226.555 307.581 225.425 306.45 224.03 306.45H203.426C202.031 306.45 200.901 307.581 200.901 308.977V313.073C200.901 314.468 202.031 315.6 203.426 315.6Z" stroke="black" stroke-miterlimit="10"/>
<path d="M203.426 341.276H224.03C225.425 341.276 226.555 340.144 226.555 338.749V318.126C226.555 316.731 225.425 315.6 224.03 315.6H203.426C202.031 315.6 200.901 316.731 200.901 318.126V338.749C200.901 340.144 202.031 341.276 203.426 341.276Z" stroke="black" stroke-miterlimit="10"/>
<path d="M177.772 315.6H198.377C199.771 315.6 200.901 314.468 200.901 313.073V308.977C200.901 307.581 199.771 306.45 198.377 306.45H177.772C176.378 306.45 175.248 307.581 175.248 308.977V313.073C175.248 314.468 176.378 315.6 177.772 315.6Z" stroke="black" stroke-miterlimit="10"/>
<path d="M177.772 341.276H198.377C199.771 341.276 200.901 340.144 200.901 338.749V318.126C200.901 316.731 199.771 315.6 198.377 315.6H177.772C176.378 315.6 175.248 316.731 175.248 318.126V338.749C175.248 340.144 176.378 341.276 177.772 341.276Z" stroke="black" stroke-miterlimit="10"/>
<path d="M67.5211 238.697C88.0891 238.697 104.763 229.134 104.763 217.337C104.763 205.54 88.0891 195.977 67.5211 195.977C46.9531 195.977 30.2794 205.54 30.2794 217.337C30.2794 229.134 46.9531 238.697 67.5211 238.697Z" stroke="black" stroke-miterlimit="10"/>
<path d="M435.924 337.164C435.924 292.968 388.615 292.701 388.615 292.701V337.164H483.232V292.701C483.232 292.701 435.924 292.968 435.924 337.164Z" stroke="black" stroke-miterlimit="10"/>
<path d="M388.584 340.601H483.201" stroke="black" stroke-miterlimit="10"/>
<path d="M340.82 140.198V131.959H512.979" stroke="black" stroke-width="3" stroke-miterlimit="10"/>
<path d="M340.82 338.89V194.878" stroke="black" stroke-width="3" stroke-miterlimit="10"/>
<path d="M360.876 271.043H342.388V332.863H360.876V271.043Z" stroke="black" stroke-miterlimit="10"/>
<path d="M360.891 271.043L342.388 332.848" stroke="black" stroke-miterlimit="10"/>
<path d="M342.388 271.043L360.891 332.848" stroke="black" stroke-miterlimit="10"/>
<path d="M360.876 205.33H342.388V267.151H360.876V205.33Z" stroke="black" stroke-miterlimit="10"/>
<path d="M360.891 205.33L342.388 267.151" stroke="black" stroke-miterlimit="10"/>
<path d="M342.388 205.33L360.891 267.151" stroke="black" stroke-miterlimit="10"/>
<path d="M469.606 159.283H400.093V285.356H469.606V159.283Z" stroke="black" stroke-width="0.5" stroke-miterlimit="10" stroke-linecap="round" stroke-dasharray="3 3"/>
<path d="M512.994 20.9207H483.201V129.997H512.994V20.9207Z" stroke="black" stroke-miterlimit="10"/>
<path d="M483.185 99.6597H450.914V131.959H483.185V99.6597Z" stroke="black" stroke-miterlimit="10"/>
<path d="M450.914 107.24H483.201" stroke="black" stroke-miterlimit="10"/>
<path d="M483.201 99.6597H512.994" stroke="black" stroke-miterlimit="10"/>
<path d="M507.694 25.8331H486.917V46.6282H507.694V25.8331Z" stroke="black" stroke-width="0.5" stroke-miterlimit="10"/>
<path d="M492.405 35.5322C494.623 35.5322 496.42 33.7334 496.42 31.5145C496.42 29.2955 494.623 27.4967 492.405 27.4967C490.188 27.4967 488.391 29.2955 488.391 31.5145C488.391 33.7334 490.188 35.5322 492.405 35.5322Z" stroke="black" stroke-width="0.5" stroke-miterlimit="10"/>
<path d="M502.206 35.5322C504.423 35.5322 506.22 33.7334 506.22 31.5145C506.22 29.2955 504.423 27.4967 502.206 27.4967C499.989 27.4967 498.192 29.2955 498.192 31.5145C498.192 33.7334 499.989 35.5322 502.206 35.5322Z" stroke="black" stroke-width="0.5" stroke-miterlimit="10"/>
<path d="M492.405 44.9646C494.623 44.9646 496.42 43.1658 496.42 40.9468C496.42 38.7279 494.623 36.929 492.405 36.929C490.188 36.929 488.391 38.7279 488.391 40.9468C488.391 43.1658 490.188 44.9646 492.405 44.9646Z" stroke="black" stroke-width="0.5" stroke-miterlimit="10"/>
<path d="M502.206 44.9646C504.423 44.9646 506.22 43.1658 506.22 40.9468C506.22 38.7279 504.423 36.929 502.206 36.929C499.989 36.929 498.192 38.7279 498.192 40.9468C498.192 43.1658 499.989 44.9646 502.206 44.9646Z" stroke="black" stroke-width="0.5" stroke-miterlimit="10"/>
<path d="M507.694 64.2845H486.917V96.254H507.694V64.2845Z" stroke="black" stroke-width="0.5" stroke-miterlimit="10"/>
<path d="M397.976 98.0746C414.656 98.0746 428.177 84.5413 428.177 67.8471C428.177 51.1529 414.656 37.6196 397.976 37.6196C381.297 37.6196 367.775 51.1529 367.775 67.8471C367.775 84.5413 381.297 98.0746 397.976 98.0746Z" stroke="black" stroke-miterlimit="10"/>
<path d="M368.049 88.2184L377.618 97.7957C378.1 98.2783 378.371 98.933 378.371 99.6157C378.371 100.298 378.1 100.953 377.618 101.436L366.241 112.822L353.047 99.6157L364.423 88.2295C364.903 87.7487 365.554 87.4777 366.234 87.4756C366.913 87.4735 367.565 87.7406 368.049 88.2184Z" stroke="black" stroke-miterlimit="10"/>
<path d="M357.081 95.5792L370.269 108.778" stroke="black" stroke-miterlimit="10"/>
<path d="M427.832 47.5359L418.263 37.9586C418.018 37.7164 417.824 37.4275 417.693 37.1089C417.562 36.7902 417.496 36.4485 417.499 36.1038C417.502 35.7591 417.574 35.4186 417.711 35.1024C417.848 34.7862 418.047 34.5008 418.297 34.2631L429.673 22.8769L442.868 36.0831L431.491 47.4693C431.257 47.716 430.975 47.9137 430.664 48.0508C430.352 48.1878 430.016 48.2616 429.676 48.2678C429.335 48.274 428.997 48.2125 428.681 48.0868C428.364 47.9612 428.076 47.7739 427.832 47.5359Z" stroke="black" stroke-miterlimit="10"/>
<path d="M438.856 40.1307L425.668 26.9317" stroke="black" stroke-miterlimit="10"/>
<path d="M377.673 37.9591L368.104 47.5364C367.622 48.0191 366.968 48.2903 366.286 48.2903C365.604 48.2903 364.95 48.0191 364.467 47.5364L353.047 36.1058L366.241 22.8996L377.618 34.2858C377.865 34.5217 378.063 34.8046 378.2 35.1179C378.337 35.4313 378.41 35.7688 378.415 36.1108C378.421 36.4528 378.358 36.7924 378.23 37.1098C378.103 37.4271 377.913 37.7159 377.673 37.9591Z" stroke="black" stroke-miterlimit="10"/>
<path d="M370.269 26.9317L357.081 40.1307" stroke="black" stroke-miterlimit="10"/>
<path d="M418.32 97.7951L427.889 88.2179C428.127 87.9765 428.411 87.7846 428.723 87.6533C429.036 87.522 429.371 87.4539 429.71 87.4529C430.049 87.4519 430.385 87.5179 430.699 87.6473C431.012 87.7767 431.297 87.9668 431.537 88.2068L442.913 99.593L429.718 112.799L418.342 101.413C417.864 100.934 417.593 100.286 417.589 99.6086C417.585 98.9314 417.847 98.2798 418.32 97.7951Z" stroke="black" stroke-miterlimit="10"/>
<path d="M425.668 108.778L438.856 95.5792" stroke="black" stroke-miterlimit="10"/>
<path d="M340.82 432.9H380.1L498.082 370.122V338.89" stroke="black" stroke-width="3" stroke-miterlimit="10"/>
<path d="M340.82 418.257H372.84L483.185 360.423V337.164" stroke="black" stroke-width="3" stroke-miterlimit="10"/>
<path d="M220.8 23.2749H199.443V100.444H220.8V23.2749Z" stroke="black" stroke-miterlimit="10"/>
<path d="M217.021 29.5526H204.602V41.9826H217.021V29.5526Z" stroke="black" stroke-width="0.5" stroke-miterlimit="10"/>
<path d="M210.121 96.3168C213.153 96.3168 215.61 93.8575 215.61 90.8237C215.61 87.79 213.153 85.3307 210.121 85.3307C207.09 85.3307 204.633 87.79 204.633 90.8237C204.633 93.8575 207.09 96.3168 210.121 96.3168Z" stroke="black" stroke-width="0.5" stroke-miterlimit="10"/>
<path d="M210.811 80.5125C213.842 80.5125 216.3 78.0532 216.3 75.0195C216.3 71.9857 213.842 69.5264 210.811 69.5264C207.78 69.5264 205.323 71.9857 205.323 75.0195C205.323 78.0532 207.78 80.5125 210.811 80.5125Z" stroke="black" stroke-width="0.5" stroke-miterlimit="10"/>
<path d="M342.404 20.9207H237.798V119.011H342.404V20.9207Z" stroke="black" stroke-width="0.5" stroke-miterlimit="10" stroke-linecap="round" stroke-dasharray="3 3"/>
<path d="M211.062 137.138V168.229C211.062 169.356 211.975 170.269 213.101 170.269H244.164C245.29 170.269 246.203 169.356 246.203 168.229V137.138C246.203 136.011 245.29 135.098 244.164 135.098H213.101C211.975 135.098 211.062 136.011 211.062 137.138Z" stroke="black" stroke-miterlimit="10"/>
<path d="M217.319 164.729V168.621C217.319 169.531 218.056 170.269 218.965 170.269H244.556C245.466 170.269 246.203 169.531 246.203 168.621V164.729C246.203 163.819 245.466 163.081 244.556 163.081H218.965C218.056 163.081 217.319 163.819 217.319 164.729Z" stroke="black" stroke-miterlimit="10"/>
<path d="M217.319 136.73V140.622C217.319 141.532 218.056 142.27 218.965 142.27H244.556C245.466 142.27 246.203 141.532 246.203 140.622V136.73C246.203 135.82 245.466 135.082 244.556 135.082H218.965C218.056 135.082 217.319 135.82 217.319 136.73Z" stroke="black" stroke-miterlimit="10"/>
<path d="M222.039 163.097V142.286" stroke="black" stroke-miterlimit="10"/>
<path d="M324.387 395.092V364.001C324.387 362.874 323.474 361.961 322.348 361.961H291.285C290.159 361.961 289.246 362.874 289.246 364.001V395.092C289.246 396.219 290.159 397.132 291.285 397.132H322.348C323.474 397.132 324.387 396.219 324.387 395.092Z" stroke="black" stroke-miterlimit="10"/>
<path d="M318.13 367.501V363.609C318.13 362.699 317.393 361.961 316.484 361.961H290.893C289.983 361.961 289.246 362.699 289.246 363.609V367.501C289.246 368.411 289.983 369.149 290.893 369.149H316.484C317.393 369.149 318.13 368.411 318.13 367.501Z" stroke="black" stroke-miterlimit="10"/>
<path d="M318.13 395.469V391.592C318.13 390.682 317.393 389.944 316.484 389.944H290.893C289.983 389.944 289.246 390.682 289.246 391.592V395.469C289.246 396.379 289.983 397.117 290.893 397.117H316.484C317.393 397.117 318.13 396.379 318.13 395.469Z" stroke="black" stroke-miterlimit="10"/>
<path d="M313.426 369.149V389.944" stroke="black" stroke-miterlimit="10"/>
<path d="M103.038 303.374V345.843" stroke="black" stroke-miterlimit="10" stroke-linecap="round" stroke-dasharray="3 3"/>
<path d="M98.2553 300.706H53.8318C53.8318 300.706 54.0827 348.04 98.2553 348.04" stroke="black" stroke-miterlimit="10"/>
<path d="M103.007 351.822V449.646" stroke="black" stroke-width="3" stroke-miterlimit="10"/>
<path d="M91.1833 409.358H18.268C16.103 409.358 14.3478 411.115 14.3478 413.282V438.001C14.3478 440.167 16.103 441.924 18.268 441.924H91.1833C93.3484 441.924 95.1035 440.167 95.1035 438.001V413.282C95.1035 411.115 93.3484 409.358 91.1833 409.358Z" stroke="black" stroke-miterlimit="10"/>
<path d="M26.2025 425.649C26.2024 426.184 26.0439 426.706 25.7468 427.15C25.4497 427.595 25.0276 427.941 24.5338 428.144C24.0401 428.348 23.497 428.401 22.9734 428.295C22.4498 428.19 21.9693 427.931 21.5927 427.552C21.2161 427.173 20.9605 426.691 20.8582 426.166C20.7559 425.641 20.8116 425.098 21.0181 424.605C21.2247 424.112 21.5728 423.692 22.0184 423.397C22.464 423.102 22.987 422.946 23.5211 422.95C24.2336 422.954 24.9156 423.24 25.418 423.746C25.9205 424.252 26.2025 424.936 26.2025 425.649Z" stroke="black" stroke-miterlimit="10"/>
<path d="M34.6544 300.706H6.00571V329.379H34.6544V300.706Z" stroke="black" stroke-miterlimit="10"/>
<path d="M93.5354 362.275H103.038V385.032H93.5354C92.6767 385.032 91.8264 384.863 91.0331 384.534C90.2398 384.205 89.5189 383.723 88.9117 383.115C88.3046 382.507 87.8229 381.786 87.4943 380.992C87.1657 380.198 86.9966 379.347 86.9966 378.487V368.819C86.9966 367.96 87.1657 367.109 87.4943 366.315C87.8229 365.521 88.3046 364.799 88.9117 364.192C89.5189 363.584 90.2398 363.102 91.0331 362.773C91.8264 362.444 92.6767 362.275 93.5354 362.275Z" stroke="black" stroke-miterlimit="10"/>
<path d="M94.8055 375.913C96.0526 375.913 97.0636 374.902 97.0636 373.653C97.0636 372.405 96.0526 371.393 94.8055 371.393C93.5585 371.393 92.5475 372.405 92.5475 373.653C92.5475 374.902 93.5585 375.913 94.8055 375.913Z" stroke="black" stroke-miterlimit="10"/>
<path d="M7.08768 354.239H18.8168C19.6486 354.239 20.4463 354.57 21.0344 355.159C21.6226 355.747 21.953 356.546 21.953 357.378V376.337C21.953 377.17 21.6226 377.968 21.0344 378.557C20.4463 379.145 19.6486 379.476 18.8168 379.476H7.08768V354.239Z" stroke="black" stroke-miterlimit="10"/>
<path d="M32.6786 375.191H21.953V358.587H32.6472C34.8472 358.587 36.9571 359.461 38.5127 361.018C40.0684 362.575 40.9423 364.687 40.9423 366.889C40.9423 369.086 40.0727 371.193 38.5238 372.749C36.975 374.305 34.8731 375.183 32.6786 375.191Z" stroke="black" stroke-miterlimit="10"/>
<path d="M37.5396 366.889C37.5396 369.071 34.623 370.844 31.0321 370.844C27.4412 370.844 24.5403 369.071 24.5403 366.889C24.5403 364.707 27.4412 362.934 31.0321 362.934C34.623 362.934 37.5396 364.707 37.5396 366.889Z" stroke="black" stroke-miterlimit="10"/>
<path d="M13.5952 369.541C15.0587 369.541 16.2452 368.354 16.2452 366.889C16.2452 365.424 15.0587 364.237 13.5952 364.237C12.1316 364.237 10.9451 365.424 10.9451 366.889C10.9451 368.354 12.1316 369.541 13.5952 369.541Z" stroke="black" stroke-miterlimit="10"/>
<path d="M197.64 128.381H179.152V190.201H197.64V128.381Z" stroke="black" stroke-miterlimit="10"/>
<path d="M197.655 128.381L179.152 190.201" stroke="black" stroke-miterlimit="10"/>
<path d="M179.152 128.381L197.655 190.201" stroke="black" stroke-miterlimit="10"/>
<path d="M143.478 17.2639H61.9702V182.84H143.478V17.2639Z" stroke="black" stroke-width="0.5" stroke-miterlimit="10" stroke-linecap="round" stroke-dasharray="3 3"/>
<path d="M199.443 292.435H279.603" stroke="black" stroke-width="3" stroke-miterlimit="10"/>
<path d="M272.813 357.284H154.627V422.95H272.813V357.284Z" stroke="black" stroke-width="0.5" stroke-miterlimit="10" stroke-linecap="round" stroke-dasharray="3 3"/>
<path d="M263.436 432.9H164.004V449.646H263.436V432.9Z" stroke="black" stroke-miterlimit="10"/>
<path d="M136.422 412.246H113.089C111.522 412.246 110.251 413.518 110.251 415.087V438.44C110.251 440.009 111.522 441.281 113.089 441.281H136.422C137.99 441.281 139.26 440.009 139.26 438.44V415.087C139.26 413.518 137.99 412.246 136.422 412.246Z" stroke="black" stroke-miterlimit="10"/>
<path d="M502.049 140.198H478.716C477.149 140.198 475.878 141.47 475.878 143.039V166.393C475.878 167.961 477.149 169.233 478.716 169.233H502.049C503.617 169.233 504.887 167.961 504.887 166.393V143.039C504.887 141.47 503.617 140.198 502.049 140.198Z" stroke="black" stroke-miterlimit="10"/>
<path d="M316.562 191.504H219.232V274.339H316.562V191.504Z" stroke="black" stroke-width="0.5" stroke-miterlimit="10" stroke-linecap="round" stroke-dasharray="3 3"/>
</g>
<defs>
<clipPath id="clip0_5_986">
<rect width="519" height="452" fill="white"/>
</clipPath>
</defs>
</svg>
